<svg xmlns="http://www.w3.org/2000/svg" version="1.1" id="Layer_1" x="0px" y="0px" viewBox="0 0 594 61" ><style>.emailPath{fill:#FFFFFF;}</style>
<g>
	<g>
		<path class="emailPath" d="M20.4,23.5H9.6v-3.2h14.8v23.3h-4V23.5z M18.8,12.3c0-1.8,1.3-3.1,3.2-3.1s3.2,1.2,3.2,3.1c0,1.9-1.3,3.1-3.2,3.1
			S18.8,14.2,18.8,12.3z"/>
		<path class="emailPath" d="M38.8,20.3H42l0.3,3.9h0.2c2.4-2.5,5.1-4.5,8.8-4.5c5.5,0,8.1,3.3,8.1,9.4v14.5h-4v-14c0-4.4-1.5-6.5-5.3-6.5
			c-2.8,0-4.7,1.4-7.3,4.2v16.3h-4V20.3z"/>
		<path  class="emailPath" d="M68.3,20.5l6.8-0.2h13.6v3.2H68.3V20.5z M75,18.3c0-5.7,3-9.5,9.4-9.5c2.3,0,4.5,0.4,6.7,1.3l-0.9,3
			c-1.9-0.8-3.4-1.1-5.4-1.1c-4.2,0-5.9,2.4-5.9,6.1v25.4H75V18.3z"/>
		<path class="emailPath"  d="M95.3,32c0-7.8,5.4-12.3,11.5-12.3s11.5,4.5,11.5,12.3c0,7.7-5.4,12.2-11.5,12.2S95.3,39.7,95.3,32z M114.2,32
			c0-5.4-3-9-7.4-9s-7.4,3.6-7.4,9c0,5.3,3,8.9,7.4,8.9S114.2,37.3,114.2,32z"/>
		<path class="emailPath"  d="M123.8,31.6c0-12.2,6.2-18.5,14.1-18.5c6.6,0,9.7,4.9,9.7,11.4v14.3h-2.4l-0.3-2.8h-0.2c-1.4,1.8-3.8,3.4-6.3,3.4
			c-3.4,0-6.2-2.4-6.2-6.3c0-4.9,4.5-7.2,12.7-8.2v-0.7c0-4.6-2.1-8.4-7.2-8.4c-5.8,0-10.9,5.4-10.9,16c0,10.3,4.9,16.1,11.1,16.1
			c2.9,0,4.9-0.8,6.8-2.2l1.3,2.2c-2.5,1.7-5,2.6-8.2,2.6C130.2,50.5,123.8,44,123.8,31.6z M144.5,33.5v-6c-6.6,1-9.2,2.6-9.2,5.5
			c0,2.3,1.5,3.6,3.8,3.6C140.9,36.6,142.8,35.5,144.5,33.5z"/>
		<path  class="emailPath" d="M150.8,20.3h3.9l2.8,13.5c0.4,2.2,0.8,4.2,1.1,6.4h0.2c0.3-2.2,0.8-4.3,1.3-6.4l2.9-12.1h3.9l2.8,12.1
			c0.5,2.2,1.2,4.2,1.4,6.4h0.2c0.4-2.2,0.6-4.2,1.1-6.4l2.8-13.5h3.6l-5,23.3h-5.1l-2.7-11.1c-0.4-1.6-0.8-3.9-1.2-6.9h-0.2
			c-0.4,3-0.8,5.3-1.2,6.9L161,43.6h-5.1L150.8,20.3z"/>
		<path  class="emailPath" d="M183.3,37.6c0-5.2,4.9-7.8,16.9-8.7c-0.1-3.2-1.7-5.9-6.2-5.9c-3,0-6,1.4-8.2,2.8l-1.6-2.7c2.4-1.5,6.3-3.4,10.4-3.4
			c6.4,0,9.5,3.8,9.5,9.6v14.3H201l-0.3-3.2h-0.1c-2.5,2-5.9,3.7-9.2,3.7C186.9,44.2,183.3,41.7,183.3,37.6z M200.3,37.5v-6
			c-10,0.8-13,2.7-13,5.8c0,2.6,2.4,3.7,5.1,3.7C195,41,197.6,39.7,200.3,37.5z"/>
		<path  class="emailPath" d="M215.5,20.3h3.3l0.4,5.5h0.1c2.4-3.8,6.1-6.1,10.4-6.1c1.7,0,3.2,0.2,4.6,1l-0.9,3.4c-1.6-0.5-2.5-0.8-4.3-0.8
			c-3.5,0-6.8,1.8-9.6,6.7v13.6h-4V20.3z"/>
		<path  class="emailPath" d="M242,20.3h3.3l0.3,3h0.1c2.2-2.1,5.2-3.6,8.1-3.6c6.3,0,9.6,4.7,9.6,11.9c0,7.9-5,12.6-10.6,12.6c-2.2,0-4.8-1.1-7-3h-0.1
			l0.2,4.4v7.9h-4V20.3z M259.4,31.6c0-5.1-1.9-8.5-6.6-8.5c-2.1,0-4.5,1.1-6.8,3.5v11.6c2.2,2,4.6,2.7,6.2,2.7
			C256.4,40.8,259.4,37.4,259.4,31.6z"/>
		<path class="emailPath"  d="M269.9,31.9c0-7.6,5.7-12.2,11.9-12.2c6.7,0,10.7,4.4,10.7,10.9c0,0.9-0.1,1.8-0.2,2.4h-19.7V30h17.4l-1,1.1
			c0-5.5-2.7-8.3-7-8.3c-4.3,0-8.1,3.3-8.1,9.1c0,6,3.9,9.1,9.1,9.1c2.8,0,5-0.9,7.1-2.2l1.4,2.6c-2.3,1.5-5.3,2.8-9,2.8
			C275.5,44.2,269.9,39.7,269.9,31.9z"/>
		<path class="emailPath" d="M298.5,32c0-7.6,5-12.3,10.6-12.3c2.8,0,4.9,1.1,7,3h0.1l-0.2-4.3v-9h4v34.2h-3.3l-0.3-3.1h-0.1c-1.9,2-4.7,3.6-7.6,3.6
			C302.6,44.2,298.5,39.8,298.5,32z M316,37.4V25.8c-2.1-2-4.1-2.7-6.1-2.7c-4,0-7.3,3.6-7.3,8.9c0,5.6,2.6,8.9,6.9,8.9
			C311.8,40.8,314,39.7,316,37.4z"/>
		<path class="emailPath"  d="M329.2,20.3h3.3l0.3,3h0.1c2.2-2.1,5.2-3.6,8.1-3.6c6.3,0,9.6,4.7,9.6,11.9c0,7.9-5,12.6-10.6,12.6c-2.2,0-4.8-1.1-7-3
			H333l0.2,4.4v7.9h-4V20.3z M346.5,31.6c0-5.1-1.9-8.5-6.6-8.5c-2.1,0-4.5,1.1-6.8,3.5v11.6c2.2,2,4.6,2.7,6.2,2.7
			C343.5,40.8,346.5,37.4,346.5,31.6z"/>
		<path class="emailPath"  d="M357.4,34.8V20.3h4v14c0,4.4,1.5,6.5,5.4,6.5c2.7,0,4.7-1.2,7.2-4.3V20.3h4v23.3h-3.3l-0.3-4.1h-0.2
			c-2.4,2.7-5.1,4.7-8.7,4.7C360,44.2,357.4,40.9,357.4,34.8z"/>
		<path  class="emailPath" d="M387.2,20.3h3.3l0.3,3h0.1c2.2-2.1,5.2-3.6,8.1-3.6c6.3,0,9.6,4.7,9.6,11.9c0,7.9-5,12.6-10.6,12.6c-2.2,0-4.8-1.1-7-3
			H391l0.2,4.4v7.9h-4V20.3z M404.6,31.6c0-5.1-1.9-8.5-6.6-8.5c-2.1,0-4.5,1.1-6.8,3.5v11.6c2.2,2,4.6,2.7,6.2,2.7
			C401.5,40.8,404.6,37.4,404.6,31.6z"/>
		<path class="emailPath"  d="M416.3,20.3h3.3l0.3,3h0.1c2.2-2.1,5.2-3.6,8.1-3.6c6.3,0,9.6,4.7,9.6,11.9c0,7.9-5,12.6-10.6,12.6c-2.2,0-4.8-1.1-7-3
			h-0.1l0.2,4.4v7.9h-4V20.3z M433.7,31.6c0-5.1-1.9-8.5-6.6-8.5c-2.1,0-4.5,1.1-6.8,3.5v11.6c2.2,2,4.6,2.7,6.2,2.7
			C430.6,40.8,433.7,37.4,433.7,31.6z"/>
		<path class="emailPath" d="M444.1,53.2l0.8-3.2c0.6,0.2,1.4,0.3,2.1,0.3c3.3,0,5.2-2.1,6.4-4.9l0.7-1.7l-10.8-23.4h4l5.7,12.9
			c0.9,2.1,1.9,4.5,2.9,6.8h0.2c0.8-2.2,1.7-4.7,2.5-6.8l5-12.9h3.8L457,45.5c-1.7,4.6-4.6,8.1-9.9,8.1
			C446,53.7,444.9,53.5,444.1,53.2z"/>
		<path class="emailPath"  d="M480.4,40.1c0-2.4,1.7-4.1,3.9-4.1s3.9,1.7,3.9,4.1c0,2.4-1.7,4.1-3.9,4.1S480.4,42.6,480.4,40.1z"/>
		<path class="emailPath"  d="M502.8,32c0-7.8,6-12.3,13-12.3c3.8,0,6.6,1.5,8.5,3.4l-2,2.5c-1.9-1.6-3.9-2.6-6.4-2.6c-5.4,0-9.1,3.6-9.1,9
			c0,5.3,3.6,8.9,9,8.9c2.9,0,5.3-1.3,7.2-2.9l1.8,2.6c-2.6,2.3-5.8,3.6-9.3,3.6C508.3,44.2,502.8,39.7,502.8,32z"/>
		<path  class="emailPath" d="M530.9,32c0-7.8,5.4-12.3,11.5-12.3s11.5,4.5,11.5,12.3c0,7.7-5.4,12.2-11.5,12.2S530.9,39.7,530.9,32z M549.8,32
			c0-5.4-3-9-7.4-9c-4.5,0-7.4,3.6-7.4,9c0,5.3,3,8.9,7.4,8.9C546.8,40.9,549.8,37.3,549.8,32z"/>
		<path  class="emailPath" d="M559.8,20.3h3.2l0.3,3.1h0.1c1.2-2.2,2.6-3.6,5.3-3.6c2.3,0,3.7,1.3,4.4,4c1.3-2.5,2.8-4,5.5-4c3.3,0,5.2,2.5,5.2,7.2
			v16.7h-3.9V27.2c0-2.7-0.8-4.1-2.5-4.1c-1.6,0-2.5,1.2-3.7,3.6v16.9H570V27.2c0-2.7-0.7-4.1-2.4-4.1c-1.6,0-2.7,1.2-3.8,3.6v16.9
			h-3.9V20.3z"/>
	</g>
</g>
</svg>